# xmcd
#
# Track frame offsets:
#	150
#	14425
#	27808
#	40517
#	54955
#	67475
#	80751
#	94134
#	107680
#	121712
#	134529
#	147777
#	162618
#	177459
#	189871
#	204579
#	218691
#	233209
#	245811
#	260437
#	273497
#	286800
#	297862
#	312650
#	328924
#
# Disc length: 4564 seconds
#
# Revision: 0
# Processed by: cddbd v1.5.2PL0 Copyright (c) Steve Scherf et al.
# Submitted via: EZCDAudioConverter 2.2.2.1
#
DISCID=7f11d219
DTITLE=Various Artist - Chicago Urban Blues 1923-1945
DYEAR=2003
DGENRE=Blues
TTITLE0=Ida Cox - Chicago Bound Blues
TTITLE1=Hersal Thomas - Suitcase Blues
TTITLE2=Sippie Wallace - Bedroom Blues
TTITLE3=Richard M. Jones - Sport Model Mama
TTITLE4=Meade -Lux- Lewis - Honky Tonk Train Blues
TTITLE5=Smith, Pine Top - Pine Top Blues
TTITLE6=Tampa Red And His Hokum Jug Band - I Wonder Where My Easy Rider's Gone
TTITLE7=Tom, Georgia - Come on Mama
TTITLE8=Memphis Minnie - Squat It
TTITLE9=Bumble Bee Slim - Feather Bed Blues
TTITLE10=Big Bill Broonzy - Big Bill Blues
TTITLE11=Bob Robinson - Down in the Alley
TTITLE12=Lil Johnson - My Stove's in Good Condition
TTITLE13=Harlem Hamfats - We Gonna Pitch a Boogie Woogie
TTITLE14=Kokomo Arnold - Cold Winter Blues
TTITLE15=Jimmy Yancey - East St Louis Blues
TTITLE16=Washboard Sam - She Fooled Me
TTITLE17=Lillian -Lil- Green - Romance in the Dark
TTITLE18=Memphis Slim - Beer Drinking Woman
TTITLE19=Big Maceo Merriweather - Worried Life Blues
TTITLE20=Sonny Boy Williamson - Million Years Blues
TTITLE21=Tommy McClennan - Classy Mae Blues
TTITLE22=Jazz Gillum - Down South Blues
TTITLE23=Lonnie Johnson - Watch Shorty
TTITLE24=Roosevelt Sykes - This Tavern Boogie
EXTD=
EXTT0=
EXTT1=
EXTT2=
EXTT3=
EXTT4=
EXTT5=
EXTT6=
EXTT7=
EXTT8=
EXTT9=
EXTT10=
EXTT11=
EXTT12=
EXTT13=
EXTT14=
EXTT15=
EXTT16=
EXTT17=
EXTT18=
EXTT19=
EXTT20=
EXTT21=
EXTT22=
EXTT23=
EXTT24=
PLAYORDER=
